<svg xmlns="http://www.w3.org/2000/svg" viewBox="0 0 560 260" role="img" aria-labelledby="title">
  <title id="title">MOVEON logo</title>
  <rect width="560" height="260" fill="none"/>
  <g fill="#ffffff">
    <path d="M132 148c39-4 63-12 102-31 45-22 90-35 148-21 41 10 74 30 105 57 26 2 44 6 57 15 6 4 12 12 9 19-4 10-24 8-47 6-10-27-31-45-58-45-33 0-59 25-62 58H271c-7-25-27-40-53-40-26 0-47 16-54 40-15-30-31-48-74-46 12-6 26-10 42-12Zm123-19c43 11 87 16 161 16-31-23-64-36-104-38-25-1-43 6-57 22Z"/>
    <path d="M55 197c24 2 54 2 91 0 36-2 68-2 100 0 52 3 109 8 194 2 43-3 78-4 107 3-33 14-100 16-189 12-61-3-107-9-147-12-52-3-99 6-156-5Z"/>
    <path d="M37 174c15-24 36-35 62-27 15-24 48-26 68-5 13 13 17 30 12 46-18-16-38-22-59-14-7-21-30-26-46-12-12-2-25 2-37 12Z"/>
    <path d="M168 189c26 1 49 4 75 11-31 0-61-2-92-8-23-5-44-9-70-5 29-11 56-7 87 2Z"/>
    <circle cx="219" cy="203" r="33"/>
    <circle cx="448" cy="203" r="33"/>
    <circle cx="21" cy="187" r="11"/>
    <circle cx="35" cy="162" r="10"/>
    <circle cx="71" cy="138" r="7"/>
  </g>
</svg>
